<?xml version="1.0" standalone="no"?>
<!DOCTYPE svg PUBLIC "-//W3C//DTD SVG 20010904//EN"
 "http://www.w3.org/TR/2001/REC-SVG-20010904/DTD/svg10.dtd">
<svg version="1.0" xmlns="http://www.w3.org/2000/svg"
 width="64.000000pt" height="64.000000pt" viewBox="0 0 64.000000 64.000000"
 preserveAspectRatio="xMidYMid meet">

<g transform="translate(0.000000,64.000000) scale(0.100000,-0.100000)"
fill="#6415FF" stroke="blue">
<path d="M228 600 c-21 -30 -23 -30 -113 -30 -57 0 -95 -4 -103 -12 -15 -15
-16 -134 -2 -143 6 -4 10 -63 10 -144 0 -93 4 -141 12 -149 8 -8 60 -12 167
-12 l155 0 -27 -28 c-32 -33 -34 -57 -8 -72 27 -14 26 -14 64 20 31 27 36 28
70 18 104 -32 210 75 179 181 -15 47 -16 178 -2 186 14 9 13 128 -2 143 -8 8
-46 12 -103 12 -90 0 -92 0 -113 30 -21 28 -26 30 -92 30 -66 0 -71 -2 -92
-30z m172 -10 c10 -19 8 -20 -80 -20 -88 0 -90 1 -80 20 9 17 21 20 80 20 59
0 71 -3 80 -20z m217 -104 c2 -51 0 -65 -13 -70 -15 -6 -228 -56 -237 -56 -3
0 -7 9 -10 20 -4 15 -14 20 -37 20 -23 0 -33 -5 -37 -20 -3 -11 -6 -20 -8 -20
-8 0 -226 51 -239 56 -13 5 -15 19 -13 70 l2 64 295 0 295 0 2 -64z m-467
-116 c47 -11 95 -22 106 -25 12 -3 24 -14 27 -25 7 -28 67 -28 74 0 3 11 15
22 27 25 156 36 198 45 206 45 6 0 10 -23 10 -51 l0 -50 -26 20 c-77 61 -196
19 -226 -80 l-11 -39 -139 0 c-186 0 -183 -19 4 -22 127 -3 143 -5 146 -20 3
-17 -9 -18 -152 -18 l-156 0 0 130 c0 97 3 130 13 130 6 0 50 -9 97 -20z m190
-20 c0 -23 -4 -30 -20 -30 -16 0 -20 7 -20 30 0 23 4 30 20 30 16 0 20 -7 20
-30z m211 -45 c64 -34 87 -120 49 -182 -50 -83 -170 -83 -220 0 -68 111 55
242 171 182z m-185 -263 c-20 -21 -28 -24 -38 -14 -9 9 -6 18 17 42 25 26 30
28 38 14 7 -12 2 -23 -17 -42z"/>
<path d="M60 510 c0 -11 5 -20 10 -20 6 0 10 9 10 20 0 11 -4 20 -10 20 -5 0
-10 -9 -10 -20z"/>
<path d="M110 510 c0 -11 5 -20 10 -20 6 0 10 9 10 20 0 11 -4 20 -10 20 -5 0
-10 -9 -10 -20z"/>
<path d="M160 510 c0 -11 5 -20 10 -20 6 0 10 9 10 20 0 11 -4 20 -10 20 -5 0
-10 -9 -10 -20z"/>
<path d="M210 510 c0 -11 5 -20 10 -20 6 0 10 9 10 20 0 11 -4 20 -10 20 -5 0
-10 -9 -10 -20z"/>
<path d="M260 510 c0 -11 5 -20 10 -20 6 0 10 9 10 20 0 11 -4 20 -10 20 -5 0
-10 -9 -10 -20z"/>
<path d="M310 510 c0 -11 5 -20 10 -20 6 0 10 9 10 20 0 11 -4 20 -10 20 -5 0
-10 -9 -10 -20z"/>
<path d="M360 510 c0 -11 5 -20 10 -20 6 0 10 9 10 20 0 11 -4 20 -10 20 -5 0
-10 -9 -10 -20z"/>
<path d="M410 510 c0 -11 5 -20 10 -20 6 0 10 9 10 20 0 11 -4 20 -10 20 -5 0
-10 -9 -10 -20z"/>
<path d="M460 510 c0 -11 5 -20 10 -20 6 0 10 9 10 20 0 11 -4 20 -10 20 -5 0
-10 -9 -10 -20z"/>
<path d="M510 510 c0 -11 5 -20 10 -20 6 0 10 9 10 20 0 11 -4 20 -10 20 -5 0
-10 -9 -10 -20z"/>
<path d="M560 510 c0 -11 5 -20 10 -20 6 0 10 9 10 20 0 11 -4 20 -10 20 -5 0
-10 -9 -10 -20z"/>
<path d="M438 284 c-31 -16 -58 -61 -58 -96 0 -13 9 -37 20 -55 43 -71 149
-63 185 14 45 93 -56 187 -147 137z m113 -33 c20 -20 29 -39 29 -61 0 -43 -47
-90 -90 -90 -43 0 -90 47 -90 90 0 43 47 90 90 90 22 0 41 -9 61 -29z"/>
<path d="M480 250 c0 -5 9 -10 20 -10 10 0 23 -8 29 -17 5 -10 13 -15 17 -10
11 10 -26 47 -48 47 -10 0 -18 -4 -18 -10z"/>
</g>
</svg>
